<svg xmlns="http://www.w3.org/2000/svg" width="40" height="36" viewBox="0 0 40 36" fill="none">
<path d="M16 16C20.4183 16 24 12.4183 24 8C24 3.58172 20.4183 0 16 0C11.5817 0 8 3.58172 8 8C8 12.4183 11.5817 16 16 16Z" fill="#0C2E50"/>
<path d="M16.7 20.02C11.24 19.82 0 22.54 0 28V32H19.08C14.14 26.48 16.62 20.22 16.7 20.02Z" fill="#0C2E50"/>
<path d="M34.86 28.04C35.58 26.86 36 25.48 36 24C36 19.58 32.42 16 28 16C23.58 16 20 19.58 20 24C20 28.42 23.58 32 28 32C29.48 32 30.86 31.56 32.04 30.86L37.18 36L40 33.18L34.86 28.04ZM28 28C25.8 28 24 26.2 24 24C24 21.8 25.8 20 28 20C30.2 20 32 21.8 32 24C32 26.2 30.2 28 28 28Z" fill="#0C2E50"/>
</svg>