<svg xmlns="http://www.w3.org/2000/svg" width="48" height="48" viewBox="0 0 48 48" fill="none">
  <g clip-path="url(#clip0_46_1601)">
    <path d="M26.5 24C26.5 25.3828 25.3828 26.5 24 26.5C22.6172 26.5 21.5 25.3828 21.5 24C21.5 22.6172 22.6172 21.5 24 21.5C25.3828 21.5 26.5 22.6172 26.5 24ZM12.75 24C12.75 17.7891 17.7891 12.75 24 12.75C30.2109 12.75 35.25 17.7891 35.25 24C35.25 30.2109 30.2109 35.25 24 35.25C17.7891 35.25 12.75 30.2109 12.75 24ZM24 30.25C27.4531 30.25 30.25 27.4531 30.25 24C30.25 20.5469 27.4531 17.75 24 17.75C20.5469 17.75 17.75 20.5469 17.75 24C17.75 27.4531 20.5469 30.25 24 30.25ZM44 24C44 35.0469 35.0469 44 24 44C12.9531 44 4 35.0469 4 24C4 12.9531 12.9531 4 24 4C35.0469 4 44 12.9531 44 24ZM24 9C15.6484 9 9 15.6484 9 24C9 32.2812 15.6484 39 24 39C32.2812 39 39 32.2812 39 24C39 15.6484 32.2812 9 24 9Z" fill="#0C2E50"/>
  </g>
  <defs>
    <clipPath id="clip0_46_1601">
      <rect width="48" height="48" fill="white"/>
    </clipPath>
  </defs>
</svg>