<svg xmlns="http://www.w3.org/2000/svg" width="48" height="48" viewBox="0 0 48 48" fill="none">
  <g clip-path="url(#clip0_167_21983)">
    <path d="M42.8182 12C39.7864 12 38.0927 15 38.7827 17.2292L31.36 24.6458C30.7327 24.4583 29.8127 24.4583 29.1855 24.6458L23.8536 19.3333C24.5645 17.1042 22.8709 14.0833 19.8182 14.0833C16.7864 14.0833 15.0718 17.0833 15.7827 19.3333L6.24818 28.8125C4.01091 28.125 1 29.8125 1 32.8333C1 35.125 2.88182 37 5.18182 37C8.21364 37 9.90727 34 9.21727 31.7708L18.7309 22.2708C19.3582 22.4583 20.2782 22.4583 20.9055 22.2708L26.2373 27.5833C25.5264 29.8125 27.22 32.8333 30.2727 32.8333C33.3045 32.8333 35.0191 29.8333 34.3082 27.5833L41.7518 20.1875C43.9891 20.875 47 19.1875 47 16.1667C47 13.875 45.1182 12 42.8182 12Z" fill="#0C2E50"/>
  </g>
  <defs>
    <clipPath id="clip0_167_21983">
      <rect width="48" height="48" fill="white"/>
    </clipPath>
  </defs>
</svg>