<svg width="99" height="20" viewBox="0 0 99 20" fill="none" xmlns="http://www.w3.org/2000/svg">
<path d="M13.786 0.426605L20.489 9.9987L13.786 19.5708H17.6797L24.3814 9.9987L17.6797 0.426605H13.786Z" fill="#00A6A2"/>
<path d="M0 0.426578V19.5721H3.18937V0.426578H0ZM7.08306 9.99867L13.786 0.426578H9.89236L3.18937 9.99867L9.89236 19.5708H13.786L7.08306 9.99867ZM56.9635 6.81595C56.9635 3.301 54.105 0.442525 50.59 0.442525H46.497V0.426578H43.3077V19.5721H46.497V13.1907H50.59C54.105 13.1907 56.9635 10.3322 56.9635 6.81728V6.81595ZM50.59 10H46.497V3.63189H50.59C52.3455 3.63189 53.7741 5.06046 53.7741 6.81595C53.7741 8.57143 52.3455 10 50.59 10ZM38.3189 0.426578L33.0472 14.909L27.7754 0.426578H24.3814V19.5721H27.5708V9.18937L31.3502 19.5721H34.7442L38.5236 9.18937V19.5721H41.713V0.426578H38.3189ZM80.909 9.23455L78.1116 8.09435C75.8591 7.18804 74.9821 6.33621 74.9821 5.05648C74.9821 3.59734 76.0253 2.72691 77.7728 2.72691C79.8525 2.72691 80.998 3.88173 80.998 5.98007V6.01329H84.1874V5.98007C84.1874 4.21262 83.5881 2.71096 82.4558 1.63854C81.3249 0.566113 79.7422 0 77.8804 0C74.2791 0 71.7635 2.15814 71.7635 5.24784C71.7635 7.68239 72.9954 9.39136 75.4233 10.3296L78.5196 11.5787C80.6419 12.4385 81.3236 13.1694 81.3236 14.59C81.3236 16.2844 80.1967 17.2186 78.1515 17.2186C75.8087 17.2186 74.4093 15.7488 74.4093 13.2864V13.192H71.2199V13.2864C71.2199 17.5535 73.7555 20 78.1781 20C81.9668 20 84.5116 17.7927 84.5116 14.5076C84.5116 11.9522 83.3316 10.2272 80.9063 9.23588L80.909 9.23455ZM95.2213 9.23455L92.4239 8.09435C90.1714 7.18804 89.2944 6.33621 89.2944 5.05648C89.2944 3.59734 90.3376 2.72691 92.0851 2.72691C94.1648 2.72691 95.3103 3.88173 95.3103 5.98007V6.01329H98.4997V5.98007C98.4997 4.21262 97.9003 2.71096 96.7681 1.63854C95.6372 0.566113 94.0545 0 92.1927 0C88.5914 0 86.0758 2.15814 86.0758 5.24784C86.0758 7.68239 87.3077 9.39136 89.7356 10.3296L92.8319 11.5787C94.9542 12.4385 95.6359 13.1694 95.6359 14.59C95.6359 16.2844 94.509 17.2186 92.4638 17.2186C90.1209 17.2186 88.7216 15.7488 88.7216 13.2864V13.192H85.5322V13.2864C85.5322 17.5535 88.0678 20 92.4904 20C96.2791 20 98.8239 17.7927 98.8239 14.5076C98.8239 11.9522 97.6439 10.2272 95.2186 9.23588L95.2213 9.23455ZM64.5196 0.426578H61.1256L54.1568 19.5721H57.5508L58.7123 16.3801H66.9316L68.093 19.5721H71.4871L64.5196 0.426578ZM59.8738 13.1907L62.8226 5.08837L65.7714 13.1907H59.8738Z" fill="white"/>
<path d="M13.7861 13.1907C15.549 13.1907 16.9781 11.7616 16.9781 9.99867C16.9781 8.23576 15.549 6.80664 13.7861 6.80664C12.0232 6.80664 10.5941 8.23576 10.5941 9.99867C10.5941 11.7616 12.0232 13.1907 13.7861 13.1907Z" fill="#00A6A2"/>
</svg>
