<?xml version="1.0" encoding="UTF-8"?> <svg xmlns="http://www.w3.org/2000/svg" id="Layer_1" data-name="Layer 1" viewBox="0 0 736.9 159.03"><defs><style>.cls-1{fill:#000;}</style></defs><path class="cls-1" d="M125.88,153H157v.7c-3.65,2.43-9,5.73-13.91,8.34V264.62h-5L66.76,170v85.55a139.52,139.52,0,0,1,13.91,8.35v.69H49.72v-.69a153.59,153.59,0,0,1,13.91-8.35V166.21L51.8,153.69V153H78.23L140,235.58V162c-5-2.78-10.26-5.91-14.08-8.34Zm136,108.67h10.26v3H228.64v-3h11l-25.91-48.51H199.25v48.51h13.22v3H167.08v-3h12.35V159.25a116.86,116.86,0,0,1-12.35-5.56V153h47.47c20.17,0,39.82,9.39,39.82,29.21,0,16.35-15.13,25.56-33.56,29.39v.17A108.66,108.66,0,0,1,234,213.85ZM199.25,210h16.87c12.52-5.21,17.56-13.21,17.56-26.6,0-20.17-9.56-27.3-23-27.3H199.25Zm100-57h95.11v34.78H391V156.12H356.61V258.36c4.17,1.57,8.87,3.65,12.69,5.57v.69H323.92v-.69a124.27,124.27,0,0,1,12.87-5.57V156.12H302.36v31.65h-3.13Zm149.71.7a103.61,103.61,0,0,1-12.52,5.56v99.11a103.61,103.61,0,0,1,12.52,5.57v.69H404.08v-.69a117.9,117.9,0,0,1,12.52-5.57V159.25a117.88,117.88,0,0,1-12.52-5.56V153h44.86Zm138.93,108h12v3H555.7v-3h12.35l-7.48-94.93h-.17l-37.56,96.15h-4.52L481.8,165.16h-.17L474,261.66h15.3v3H456.07v-3H470.5L479.19,156H464.24v-3H498l31.3,84.68,33-84.68h29.21v3H578.83Zm104.67-34.42h3.13v37.38H608.39v-3h12.52V159.25a117,117,0,0,1-12.52-5.56V153h85.37c0,10.61-.35,24.87-1.22,36.17h-1l-20.17-33h-30.6V206.2h18.95c3.31-6.44,7.3-13.57,11.13-19.65H672V228.8h-1.22a211.3,211.3,0,0,1-11.13-19.47H640.73v49l8.87,3.13h42.94Zm22.26,33.9c-.35-11.82-.17-24.69,0-34.25H716l21.21,34.77a29.84,29.84,0,0,0,10.61,1.74c13.91,0,23.3-7.3,23.3-21.21,0-29.56-56.16-23.82-56.16-61.38,0-19.65,16-29.56,36.51-29.56,12.17,0,22.26,2.26,29.73,5.91-.17,9.74-.52,21.22-1.21,31.65h-1l-19.82-32.52a19.51,19.51,0,0,0-8.69-2.08c-12.35,0-20.17,6.78-20.17,18.08,0,28.69,56.33,23.47,56.33,63.12,0,20.86-17.91,31-40.68,31C735,266.36,723.32,264.45,714.8,261.14Z" transform="translate(-49.72 -107.33)"></path><path class="cls-1" d="M178.41,134l.19-2.39V109.77l-.19-2h3.23L199,129.58h.23l-.1-19.81-.19-2h2.19l-.2,2V134h-3.15L180.48,111.9h-.23l.15,19.73.2,2.39Z" transform="translate(-49.72 -107.33)"></path><path class="cls-1" d="M216.92,134l.19-2.39v-21.9l-.19-2h14.27l-.15,1.43-2.79-.22H221v10.62l9.76-.2v1.24H221v12.17h7.3l2.73-.22V134Z" transform="translate(-49.72 -107.33)"></path><path class="cls-1" d="M245.9,123.27V109.73l-.19-2H250l-.2,2V123c0,8,2.21,10.18,6.8,10.18,5.45,0,8-2,8-10.61V109.73l-.19-2h2.18l-.19,2v12.61c0,8.33-1.86,12.08-10.15,12.08C249.1,134.42,245.9,130.88,245.9,123.27Z" transform="translate(-49.72 -107.33)"></path><path class="cls-1" d="M281.78,134l.19-2.37v-22l-.19-2c2.77-.1,5.52-.16,7-.16,6.84,0,10.09,1.34,10.09,7,0,3.55-3,6.43-6.49,7a12.17,12.17,0,0,1,2.27,2.73l5,7.4,1.86,2.37h-4.67l-1.24-2.37-6.74-10h-2.93v10L286,134Zm4.06-13.64h3.08c3.7,0,5.7-2,5.7-5.54,0-5.15-1.57-6-5.87-6-.81,0-2.17.08-2.91.13Z" transform="translate(-49.72 -107.33)"></path><path class="cls-1" d="M312,121.31c0-7.46,4.53-14,13-14,7.19,0,12.26,5.9,12.26,13.15,0,7.47-4.74,13.94-13.07,13.94C317.07,134.42,312,128.88,312,121.31Zm20.94-.21c0-6.88-2.85-12.42-8.55-12.42-4.6,0-8,4.85-8,11.86,0,7.2,2.71,12.51,8.5,12.51C329.78,133.05,332.9,127.78,332.9,121.1Z" transform="translate(-49.72 -107.33)"></path><path class="cls-1" d="M369.12,134l.2-2.37v-22l-.2-2c2.77-.1,5.52-.16,7-.16,6.83,0,10.09,1.34,10.09,7,0,3.55-3,6.43-6.49,7a12.44,12.44,0,0,1,2.27,2.73l4.95,7.4,1.86,2.37h-4.67l-1.23-2.37-6.74-10h-2.93v10l.2,2.37Zm4.07-13.64h3.08c3.7,0,5.7-2,5.7-5.54,0-5.15-1.57-6-5.87-6-.82,0-2.17.08-2.91.13Z" transform="translate(-49.72 -107.33)"></path><path class="cls-1" d="M402.11,134l.2-2.39v-21.9l-.2-2h14.28l-.16,1.43-2.79-.22h-7.28v10.62l9.76-.2v1.24h-9.76v12.17h7.3l2.73-.22V134Z" transform="translate(-49.72 -107.33)"></path><path class="cls-1" d="M431.38,134l.2-2.41V109.77l-.2-2h4.27l-.2,2v9.72H449.3v-9.72l-.19-2h4.26l-.2,2v21.84l.2,2.41h-4.26l.19-2.41V120.73H435.45v10.88l.2,2.41Z" transform="translate(-49.72 -107.33)"></path><path class="cls-1" d="M466.31,134l1.07-2.39,9.6-23.89h2.77l9.16,23.89L490,134H485.6l-.62-2.39L482.91,126H471.52l-2.19,5.65-.66,2.39Zm5.72-9.26.42,0h9.65l.36,0,.12-.08-.31-.41-3.82-10-1-3h-.27l-1.07,3.08-3.95,9.83-.29.43Z" transform="translate(-49.72 -107.33)"></path><path class="cls-1" d="M503.25,134l.2-2.23v-22l-.2-2c2.75-.1,5.48-.16,7.3-.16,5.85,0,10.06,1,10.06,6.27,0,3.18-2,5.21-5.19,5.91V120c3.54.26,6.52,1.83,6.52,6.2,0,5.56-4.14,8-11.66,8C508.11,134.11,505.69,134.07,503.25,134Zm13.21-19.72c0-4.92-2.36-5.48-5.87-5.48-1.12,0-2.51.06-3.27.13v10.48c.83,0,2,0,3.2,0C514.78,119.47,516.46,117.38,516.46,114.3Zm1.36,12.14c0-3.41-1.75-5.71-7.48-5.73-1.08,0-2.26,0-3,0v12c1.1,0,2.6,0,3.62,0C514,132.8,517.82,132.39,517.82,126.44Z" transform="translate(-49.72 -107.33)"></path><path class="cls-1" d="M559.49,134l.19-2.39V109h-5.13l-2.81.2v-1.43H571.5v1.43l-2.81-.2h-5.13v22.66l.19,2.39Z" transform="translate(-49.72 -107.33)"></path><path class="cls-1" d="M584.77,134l.19-2.43v-21.8l-.19-2.05h4.16l-.19,2.05v21.8l.19,2.43Z" transform="translate(-49.72 -107.33)"></path><path class="cls-1" d="M603.52,134l.35-2.39,1.32-21.9-.08-2h4l8.79,21.8h.23l9-21.8h3.74l-.08,2,1.22,21.9.35,2.39H628.1l.06-2.39-.72-16.15-.06-3.31h-.21l-9,21h-2.3L607,111.84h-.24l-1.14,19.79.08,2.39Z" transform="translate(-49.72 -107.33)"></path><path class="cls-1" d="M647.38,134l.19-2.39v-21.9l-.19-2h14.27l-.15,1.43-2.79-.22h-7.28v10.62l9.76-.2v1.24h-9.76v12.17h7.3l2.73-.22V134Z" transform="translate(-49.72 -107.33)"></path><path class="cls-1" d="M675.1,132.74l.83-1.73a13.24,13.24,0,0,0,2.33,1.32,11.61,11.61,0,0,0,4.24.72c3.27,0,5.27-1.47,5.27-5.91,0-3.1-2.15-3.72-6.22-5.62-3.47-1.62-5.71-3.27-5.71-7,0-5.23,4.86-7.18,9.51-7.18a15.25,15.25,0,0,1,6,1.18l-.83,1.74a12.11,12.11,0,0,0-2.31-1.08,10,10,0,0,0-3.35-.49c-2.57,0-4.8,1.16-4.8,5.31,0,2.67,1.18,3.64,4.45,5,4.17,1.74,7.5,3.46,7.5,7.51,0,4.61-3.57,7.9-10,7.9A15.74,15.74,0,0,1,675.1,132.74Z" transform="translate(-49.72 -107.33)"></path></svg> 